<svg width="77" height="27" viewBox="0 0 77 27" fill="none" xmlns="http://www.w3.org/2000/svg">
<mask id="path-1-outside-1_2_1013" maskUnits="userSpaceOnUse" x="0" y="2" width="58" height="20" fill="black">
<rect fill="white" y="2" width="58" height="20"/>
<path d="M9.39727 20.2522C8.52485 20.8754 7.50286 21.2493 6.33132 21.2493C3.96331 21.2493 1.59529 19.7288 1.59529 16.7625V9.95758H0.673014V6.79192H1.59529V3.07788H5.5586V6.79192H8.2008V9.95758H5.5586V17.0118C5.5586 17.7346 6.08205 18.0836 6.58058 18.0836C7.02926 18.0836 7.40316 17.8343 7.7272 17.3857L9.39727 20.2522ZM24.8488 21H21.6332L21.2095 18.981C19.9632 20.5015 18.1934 21.2493 16.4735 21.2493C13.7066 21.2493 11.0893 19.3549 11.0893 15.6408V6.79192H15.1773V15.6408C15.1773 17.3109 16.1993 18.1085 17.3957 18.1085C18.991 18.1085 20.8854 16.588 20.8854 13.896V6.79192H24.8488V21ZM27.8549 6.79192H31.0704L31.4942 8.81097C32.7405 7.29045 34.5103 6.54266 36.2302 6.54266C38.997 6.54266 41.6143 8.43707 41.6143 12.1511V21H37.5264V12.1511C37.5264 10.481 36.5044 9.70832 35.3079 9.70832C33.7126 9.70832 31.8182 11.2039 31.8182 13.896V21H27.8549V6.79192ZM57.0843 12.4502L56.3365 14.8681L48.1357 15.7654C48.5844 17.0865 49.5316 18.0836 50.9773 18.0836C52.4231 18.0836 53.47 17.4604 54.0682 16.5631L57.0843 18.0836C55.8878 19.9282 53.8937 21.2493 51.0272 21.2493C46.2413 21.2493 43.7985 17.5851 43.7985 13.896C43.7985 10.2318 46.2413 6.54266 50.8527 6.54266C54.4421 6.54266 57.0843 8.81097 57.0843 12.4502ZM47.9861 12.5749L52.9714 12.0016C52.7471 10.5807 51.775 9.70832 50.6533 9.70832C49.2823 9.70832 48.3351 11.0045 47.9861 12.5749Z"/>
</mask>
<path d="M9.39727 20.2522C8.52485 20.8754 7.50286 21.2493 6.33132 21.2493C3.96331 21.2493 1.59529 19.7288 1.59529 16.7625V9.95758H0.673014V6.79192H1.59529V3.07788H5.5586V6.79192H8.2008V9.95758H5.5586V17.0118C5.5586 17.7346 6.08205 18.0836 6.58058 18.0836C7.02926 18.0836 7.40316 17.8343 7.7272 17.3857L9.39727 20.2522ZM24.8488 21H21.6332L21.2095 18.981C19.9632 20.5015 18.1934 21.2493 16.4735 21.2493C13.7066 21.2493 11.0893 19.3549 11.0893 15.6408V6.79192H15.1773V15.6408C15.1773 17.3109 16.1993 18.1085 17.3957 18.1085C18.991 18.1085 20.8854 16.588 20.8854 13.896V6.79192H24.8488V21ZM27.8549 6.79192H31.0704L31.4942 8.81097C32.7405 7.29045 34.5103 6.54266 36.2302 6.54266C38.997 6.54266 41.6143 8.43707 41.6143 12.1511V21H37.5264V12.1511C37.5264 10.481 36.5044 9.70832 35.3079 9.70832C33.7126 9.70832 31.8182 11.2039 31.8182 13.896V21H27.8549V6.79192ZM57.0843 12.4502L56.3365 14.8681L48.1357 15.7654C48.5844 17.0865 49.5316 18.0836 50.9773 18.0836C52.4231 18.0836 53.47 17.4604 54.0682 16.5631L57.0843 18.0836C55.8878 19.9282 53.8937 21.2493 51.0272 21.2493C46.2413 21.2493 43.7985 17.5851 43.7985 13.896C43.7985 10.2318 46.2413 6.54266 50.8527 6.54266C54.4421 6.54266 57.0843 8.81097 57.0843 12.4502ZM47.9861 12.5749L52.9714 12.0016C52.7471 10.5807 51.775 9.70832 50.6533 9.70832C49.2823 9.70832 48.3351 11.0045 47.9861 12.5749Z" fill="#FCFCFC"/>
<path d="M9.39727 20.2522L9.73843 20.7298L10.1737 20.4189L9.90443 19.9567L9.39727 20.2522ZM1.59529 9.95758H2.18225V9.37063H1.59529V9.95758ZM0.673014 9.95758H0.0860577V10.5445H0.673014V9.95758ZM0.673014 6.79192V6.20497H0.0860577V6.79192H0.673014ZM1.59529 6.79192V7.37888H2.18225V6.79192H1.59529ZM1.59529 3.07788V2.49092H1.00834V3.07788H1.59529ZM5.5586 3.07788H6.14556V2.49092H5.5586V3.07788ZM5.5586 6.79192H4.97164V7.37888H5.5586V6.79192ZM8.2008 6.79192H8.78776V6.20497H8.2008V6.79192ZM8.2008 9.95758V10.5445H8.78776V9.95758H8.2008ZM5.5586 9.95758V9.37063H4.97164V9.95758H5.5586ZM7.7272 17.3857L8.23436 17.0902L7.77991 16.3102L7.25137 17.042L7.7272 17.3857ZM9.05611 19.7746C8.27405 20.3332 7.3697 20.6623 6.33132 20.6623V21.8362C7.63602 21.8362 8.77565 21.4175 9.73843 20.7298L9.05611 19.7746ZM6.33132 20.6623C5.26638 20.6623 4.22222 20.3194 3.4543 19.67C2.69884 19.0312 2.18225 18.0738 2.18225 16.7625H1.00834C1.00834 18.4175 1.67575 19.7034 2.6963 20.5664C3.70439 21.4189 5.02824 21.8362 6.33132 21.8362V20.6623ZM2.18225 16.7625V9.95758H1.00834V16.7625H2.18225ZM1.59529 9.37063H0.673014V10.5445H1.59529V9.37063ZM1.25997 9.95758V6.79192H0.0860577V9.95758H1.25997ZM0.673014 7.37888H1.59529V6.20497H0.673014V7.37888ZM2.18225 6.79192V3.07788H1.00834V6.79192H2.18225ZM1.59529 3.66484H5.5586V2.49092H1.59529V3.66484ZM4.97164 3.07788V6.79192H6.14556V3.07788H4.97164ZM5.5586 7.37888H8.2008V6.20497H5.5586V7.37888ZM7.61385 6.79192V9.95758H8.78776V6.79192H7.61385ZM8.2008 9.37063H5.5586V10.5445H8.2008V9.37063ZM4.97164 9.95758V17.0118H6.14556V9.95758H4.97164ZM4.97164 17.0118C4.97164 17.5258 5.16303 17.9545 5.48539 18.2509C5.79774 18.538 6.1996 18.6706 6.58058 18.6706V17.4966C6.46304 17.4966 6.3539 17.4547 6.27989 17.3867C6.21589 17.3278 6.14556 17.2206 6.14556 17.0118H4.97164ZM6.58058 18.6706C7.28576 18.6706 7.81565 18.2657 8.20303 17.7293L7.25137 17.042C6.99067 17.403 6.77276 17.4966 6.58058 17.4966V18.6706ZM7.22004 17.6811L8.89011 20.5477L9.90443 19.9567L8.23436 17.0902L7.22004 17.6811ZM24.8488 21V21.587H25.4357V21H24.8488ZM21.6332 21L21.0588 21.1206L21.1567 21.587H21.6332V21ZM21.2095 18.981L21.7839 18.8604L21.5323 17.6613L20.7555 18.6089L21.2095 18.981ZM11.0893 6.79192V6.20497H10.5024V6.79192H11.0893ZM15.1773 6.79192H15.7642V6.20497H15.1773V6.79192ZM20.8854 6.79192V6.20497H20.2985V6.79192H20.8854ZM24.8488 6.79192H25.4357V6.20497H24.8488V6.79192ZM24.8488 20.413H21.6332V21.587H24.8488V20.413ZM22.2077 20.8794L21.7839 18.8604L20.635 19.1015L21.0588 21.1206L22.2077 20.8794ZM20.7555 18.6089C19.625 19.9881 18.0245 20.6623 16.4735 20.6623V21.8362C18.3623 21.8362 20.3013 21.0149 21.6634 19.353L20.7555 18.6089ZM16.4735 20.6623C15.221 20.6623 14.0241 20.2337 13.1453 19.4096C12.2743 18.5928 11.6763 17.351 11.6763 15.6408H10.5024C10.5024 17.6447 11.2131 19.2071 12.3424 20.266C13.4639 21.3176 14.9591 21.8362 16.4735 21.8362V20.6623ZM11.6763 15.6408V6.79192H10.5024V15.6408H11.6763ZM11.0893 7.37888H15.1773V6.20497H11.0893V7.37888ZM14.5903 6.79192V15.6408H15.7642V6.79192H14.5903ZM14.5903 15.6408C14.5903 16.5984 14.8862 17.3753 15.4212 17.9144C15.9536 18.4509 16.6671 18.6955 17.3957 18.6955V17.5216C16.9279 17.5216 16.5322 17.3674 16.2545 17.0875C15.9793 16.8103 15.7642 16.3533 15.7642 15.6408H14.5903ZM17.3957 18.6955C19.3494 18.6955 21.4724 16.8769 21.4724 13.896H20.2985C20.2985 16.2991 18.6327 17.5216 17.3957 17.5216V18.6955ZM21.4724 13.896V6.79192H20.2985V13.896H21.4724ZM20.8854 7.37888H24.8488V6.20497H20.8854V7.37888ZM24.2618 6.79192V21H25.4357V6.79192H24.2618ZM27.8549 6.79192V6.20497H27.268V6.79192H27.8549ZM31.0704 6.79192L31.6449 6.67136L31.547 6.20497H31.0704V6.79192ZM31.4942 8.81097L30.9197 8.93153L31.1714 10.1307L31.9481 9.18305L31.4942 8.81097ZM41.6143 21V21.587H42.2013V21H41.6143ZM37.5264 21H36.9394V21.587H37.5264V21ZM31.8182 21V21.587H32.4052V21H31.8182ZM27.8549 21H27.268V21.587H27.8549V21ZM27.8549 7.37888H31.0704V6.20497H27.8549V7.37888ZM30.496 6.91248L30.9197 8.93153L32.0686 8.6904L31.6449 6.67136L30.496 6.91248ZM31.9481 9.18305C33.0786 7.80385 34.6792 7.12961 36.2302 7.12961V5.9557C34.3414 5.9557 32.4024 6.77705 31.0402 8.43888L31.9481 9.18305ZM36.2302 7.12961C37.4826 7.12961 38.6795 7.55822 39.5583 8.38228C40.4294 9.19909 41.0274 10.4409 41.0274 12.1511H42.2013C42.2013 10.1472 41.4906 8.58486 40.3613 7.52595C39.2398 6.4743 37.7446 5.9557 36.2302 5.9557V7.12961ZM41.0274 12.1511V21H42.2013V12.1511H41.0274ZM41.6143 20.413H37.5264V21.587H41.6143V20.413ZM38.1133 21V12.1511H36.9394V21H38.1133ZM38.1133 12.1511C38.1133 11.1932 37.8172 10.4206 37.2793 9.8868C36.7449 9.35654 36.0314 9.12136 35.3079 9.12136V10.2953C35.7809 10.2953 36.1767 10.4465 36.4524 10.7201C36.7246 10.9902 36.9394 11.4389 36.9394 12.1511H38.1133ZM35.3079 9.12136C33.359 9.12136 31.2313 10.91 31.2313 13.896H32.4052C32.4052 11.4978 34.0663 10.2953 35.3079 10.2953V9.12136ZM31.2313 13.896V21H32.4052V13.896H31.2313ZM31.8182 20.413H27.8549V21.587H31.8182V20.413ZM28.4419 21V6.79192H27.268V21H28.4419ZM57.0843 12.4502L57.6451 12.6237L57.6713 12.5389V12.4502H57.0843ZM56.3365 14.8681L56.4004 15.4516L56.7834 15.4097L56.8973 15.0415L56.3365 14.8681ZM48.1357 15.7654L48.0719 15.182L47.3447 15.2615L47.5799 15.9542L48.1357 15.7654ZM54.0682 16.5631L54.3324 16.039L53.8682 15.8049L53.5798 16.2375L54.0682 16.5631ZM57.0843 18.0836L57.5767 18.403L57.9328 17.854L57.3485 17.5595L57.0843 18.0836ZM47.9861 12.5749L47.4132 12.4475L47.2344 13.2521L48.0532 13.158L47.9861 12.5749ZM52.9714 12.0016L53.0385 12.5847L53.6467 12.5147L53.5512 11.91L52.9714 12.0016ZM56.5236 12.2768L55.7758 14.6947L56.8973 15.0415L57.6451 12.6237L56.5236 12.2768ZM56.2727 14.2846L48.0719 15.182L48.1995 16.3489L56.4004 15.4516L56.2727 14.2846ZM47.5799 15.9542C48.0774 17.419 49.1931 18.6706 50.9773 18.6706V17.4966C49.87 17.4966 49.0914 16.7541 48.6915 15.5767L47.5799 15.9542ZM50.9773 18.6706C52.6073 18.6706 53.843 17.9591 54.5566 16.8887L53.5798 16.2375C53.097 16.9618 52.2388 17.4966 50.9773 17.4966V18.6706ZM53.804 17.0872L56.8201 18.6077L57.3485 17.5595L54.3324 16.039L53.804 17.0872ZM56.5919 17.7642C55.4984 19.45 53.6854 20.6623 51.0272 20.6623V21.8362C54.102 21.8362 56.2773 20.4063 57.5767 18.403L56.5919 17.7642ZM51.0272 20.6623C48.7973 20.6623 47.153 19.8147 46.0592 18.5688C44.9558 17.3118 44.3855 15.6165 44.3855 13.896H43.2115C43.2115 15.8645 43.8626 17.8459 45.177 19.3433C46.5012 20.8517 48.4711 21.8362 51.0272 21.8362V20.6623ZM44.3855 13.896C44.3855 10.4698 46.6454 7.12961 50.8527 7.12961V5.9557C45.8372 5.9557 43.2115 9.99377 43.2115 13.896H44.3855ZM50.8527 7.12961C52.5247 7.12961 53.9328 7.65678 54.9168 8.56339C55.8955 9.4651 56.4973 10.7806 56.4973 12.4502H57.6713C57.6713 10.4806 56.952 8.8423 55.7122 7.70005C54.4778 6.56269 52.7701 5.9557 50.8527 5.9557V7.12961ZM48.0532 13.158L53.0385 12.5847L52.9044 11.4184L47.9191 11.9917L48.0532 13.158ZM53.5512 11.91C53.2916 10.2659 52.1224 9.12136 50.6533 9.12136V10.2953C51.4275 10.2953 52.2026 10.8956 52.3917 12.0931L53.5512 11.91ZM50.6533 9.12136C49.7627 9.12136 49.0313 9.54823 48.4933 10.1679C47.9619 10.7798 47.603 11.5933 47.4132 12.4475L48.5591 12.7022C48.7183 11.9861 49.0074 11.3662 49.3797 10.9375C49.7452 10.5165 50.1729 10.2953 50.6533 10.2953V9.12136Z" fill="#FCFCFC" mask="url(#path-1-outside-1_2_1013)"/>
<path fill-rule="evenodd" clip-rule="evenodd" d="M63.3912 19.9358H64.2636C64.299 19.9359 64.3339 19.9289 64.3666 19.9154C64.3992 19.902 64.4289 19.8822 64.4539 19.8572C64.4788 19.8322 64.4987 19.8026 64.5122 19.77C64.5257 19.7373 64.5327 19.7024 64.5327 19.6671V14.0947C64.5327 13.7605 64.5813 13.7562 64.6411 14.0839L65.4581 18.5632C65.4847 18.7094 65.627 18.8279 65.7745 18.8279H66.3461C66.3812 18.828 66.416 18.8211 66.4484 18.8076C66.4809 18.7941 66.5103 18.7742 66.535 18.7492C66.5596 18.7242 66.5791 18.6945 66.5922 18.6619C66.6052 18.6293 66.6117 18.5944 66.6111 18.5593C66.6111 18.5593 66.5471 13.3889 66.6143 13.4897C66.6814 13.5904 67.5871 17.0263 67.5871 17.0263C67.6247 17.1683 67.7751 17.2835 67.9234 17.2835H68.4611C68.4964 17.2835 68.5312 17.2766 68.5638 17.2631C68.5964 17.2497 68.626 17.2299 68.6509 17.205C68.6758 17.1801 68.6956 17.1505 68.709 17.1179C68.7225 17.0854 68.7295 17.0505 68.7294 17.0153V14.0939C68.7294 13.7602 68.8516 13.7305 69.0033 14.0291L69.7156 15.4322C69.7829 15.5646 69.9576 15.672 70.1055 15.672H70.7443C70.8155 15.6719 70.8837 15.6435 70.934 15.5931C70.9843 15.5427 71.0125 15.4745 71.0125 15.4033V14.0946C71.0125 13.7605 71.1972 13.6867 71.4258 13.9305L71.8361 14.3682C71.9375 14.4763 72.1401 14.564 72.2883 14.564H72.7583C72.9067 14.564 73.1321 14.5066 73.2633 14.4351L73.8985 14.0886C74.029 14.0174 74.255 13.9597 74.4037 13.9597H76.0147C76.0859 13.9597 76.1542 13.9315 76.2046 13.8813C76.255 13.831 76.2834 13.7628 76.2836 13.6916V13.1869C76.2835 13.1517 76.2766 13.1168 76.263 13.0842C76.2495 13.0517 76.2297 13.0221 76.2047 12.9972C76.1797 12.9723 76.1501 12.9526 76.1175 12.9391C76.0849 12.9257 76.05 12.9188 76.0147 12.9189H74.4037C74.2552 12.9189 74.0276 12.9742 73.8958 13.042L73.5646 13.2126C73.2676 13.3656 72.757 13.4717 72.4236 13.4494L72.623 13.4627C72.2898 13.4406 71.8883 13.1861 71.7262 12.8942L70.9748 11.5418C70.9029 11.4123 70.7241 11.3073 70.576 11.3073H70.106C69.9576 11.3073 69.8374 11.4278 69.8374 11.576V12.8847C69.8374 13.2188 69.7608 13.2297 69.6667 12.9104L68.8054 9.98709C68.7634 9.84473 68.6093 9.72937 68.4611 9.72937H67.9234C67.7752 9.72937 67.6604 9.84916 67.6671 9.9983L67.796 12.8855C67.8109 13.2192 67.7632 13.2258 67.6896 12.9006L66.6736 8.41341C66.6409 8.2687 66.4936 8.1514 66.3461 8.1514H65.7745C65.7394 8.1513 65.7046 8.15821 65.6722 8.17172C65.6397 8.18523 65.6103 8.20507 65.5856 8.23008C65.561 8.25508 65.5415 8.28476 65.5285 8.31737C65.5154 8.34997 65.5089 8.38486 65.5095 8.41999C65.5095 8.41999 65.5735 13.5904 65.5063 13.4897C65.4392 13.3889 64.5705 7.30721 64.5705 7.30721C64.5496 7.1615 64.4125 7.04346 64.2641 7.04346H63.3911" fill="#FCA300"/>
</svg>
