<svg width="98" height="29" viewBox="0 0 98 29" fill="none" xmlns="http://www.w3.org/2000/svg">
<g clip-path="url(#clip0_1812_1143)">
<path d="M5.48952 2.11224V3.43184H6.3924H7.29529V5.84878V8.27267L4.05186 10.0715L0.801483 11.8773V17.4612V23.0452L5.78817 25.8164L10.7679 28.5806L15.7546 25.8164L20.7343 23.0452V17.4612V11.8773L17.4909 10.0715L14.2405 8.27267V5.84878V3.43184H15.1434H16.0463V2.11224V0.792647H10.7679H5.48952V2.11224ZM15.2129 2.11224V2.59841H10.7679H6.32295V2.11224V1.62608H10.7679H15.2129V2.11224ZM13.421 6.1127L13.4418 8.80051L16.6922 10.5993L19.9356 12.4051V17.4612V22.5174L15.3518 25.0593L10.7679 27.6082L6.18405 25.0593L1.60019 22.5174V17.4612V12.4051L4.84362 10.5993L8.09399 8.80051L8.11483 6.1127L8.12872 3.43184H10.7679H13.4071L13.421 6.1127Z" fill="white"/>
<path d="M9.12879 4.2095C8.72597 4.40397 8.73986 5.11238 9.14963 5.2999C9.60107 5.50826 10.0733 5.22351 10.0733 4.75123C10.0733 4.27201 9.57329 3.98725 9.12879 4.2095Z" fill="white"/>
<path d="M11.6846 4.83474C11.4901 5.0292 11.6359 5.37646 11.9138 5.37646C12.1013 5.37646 12.2263 5.25145 12.2263 5.06393C12.2263 4.87641 12.1013 4.75139 11.9138 4.75139C11.8304 4.75139 11.7332 4.78612 11.6846 4.83474Z" fill="white"/>
<path d="M10.0804 7.02231C9.74699 7.19594 9.57336 7.45986 9.53863 7.85574C9.48307 8.46692 9.85811 8.91142 10.4693 8.96698C11.0805 9.02254 11.525 8.6475 11.5805 8.03632C11.6153 7.64739 11.4625 7.30707 11.1708 7.09177C10.9068 6.8973 10.379 6.86257 10.0804 7.02231Z" fill="white"/>
<path d="M13.1086 10.6407C12.8585 10.9185 13.0461 11.3491 13.4211 11.3491C13.7753 11.3491 13.9628 10.8699 13.6989 10.6338C13.5322 10.481 13.2475 10.4879 13.1086 10.6407Z" fill="white"/>
<path d="M7.80241 12.7522L4.93402 14.3496V17.4611V20.5725L7.82324 22.1769C9.4137 23.0589 10.7402 23.7812 10.768 23.7812C10.7958 23.7812 12.1223 23.0589 13.7128 22.1769L16.602 20.5725V17.4611V14.3496L13.7128 12.7453C12.1223 11.8632 10.7889 11.1409 10.7472 11.1479C10.6986 11.1479 9.37203 11.8702 7.80241 12.7522Z" fill="white"/>
<path d="M6.71892 11.7523C6.46889 12.0301 6.65641 12.4607 7.03145 12.4607C7.38566 12.4607 7.57318 11.9815 7.30926 11.7453C7.14258 11.5925 6.85782 11.5995 6.71892 11.7523Z" fill="white"/>
<path d="M24.7971 14.683V22.4617H25.5611H26.3251V18.8501V15.2386H30.4922H34.6594V18.8501V22.4617H35.4233H36.1873V14.683V6.90432H35.4233H34.6594V10.3075V13.7107H30.4922H26.3251V10.3075V6.90432H25.5611H24.7971V14.683Z" fill="white"/>
<path d="M38.8267 14.683V22.4617H43.3411H47.8624L47.8416 21.7533L47.8208 21.0379L44.0912 21.0171L40.3546 21.0032V18.1903V15.3775H43.7578H47.161V14.6135V13.8496H43.7578H40.3546V11.1062V8.36283H44.0356H47.7166V7.63357V6.90432H43.2716H38.8267V14.683Z" fill="white"/>
<path d="M48.6194 6.95989C48.6194 6.98767 48.7027 7.13352 48.8 7.27937C48.9041 7.42522 49.1333 7.79332 49.3209 8.09196C49.5084 8.39755 49.8209 8.89066 50.0084 9.19625C50.2029 9.50185 50.5154 10.0019 50.703 10.3075C50.8974 10.6131 51.21 11.1131 51.3975 11.4187C51.592 11.7243 51.8975 12.2174 52.0781 12.5091C52.2656 12.8078 52.6129 13.3565 52.8421 13.7315C53.0782 14.1065 53.2727 14.426 53.2727 14.4399C53.2727 14.4538 52.8907 15.0719 52.4254 15.8081C51.967 16.5443 51.4392 17.3847 51.2586 17.6695C50.0571 19.5933 48.6402 21.8505 48.4735 22.0936C48.3624 22.2533 48.2721 22.3992 48.2721 22.42C48.2721 22.4408 48.668 22.4617 49.1611 22.4617H50.0432L50.189 22.1978C50.2724 22.0588 51.0919 20.7392 52.0226 19.2669C52.9463 17.7945 53.8005 16.4263 53.9186 16.2248C54.0367 16.0304 54.1547 15.8637 54.1756 15.8637C54.1964 15.8637 54.3423 16.072 54.4951 16.329C54.6548 16.5929 55.5091 17.9542 56.3981 19.371C57.2871 20.7809 58.0788 22.0588 58.1622 22.1978L58.308 22.4617H59.197C59.6832 22.4617 60.079 22.4408 60.079 22.42C60.079 22.3992 60.0235 22.295 59.9471 22.1978C59.836 22.038 58.0858 19.2669 57.0926 17.6695C56.912 17.3847 56.3911 16.5443 55.9258 15.8081C55.4605 15.0719 55.0785 14.4538 55.0785 14.433C55.0785 14.4191 55.1826 14.2385 55.3077 14.0371C55.4396 13.8426 55.7035 13.419 55.898 13.0995C56.0994 12.7869 56.4189 12.2799 56.6064 11.9744C56.8009 11.6688 57.1134 11.1618 57.3148 10.8423C57.5093 10.5297 57.8218 10.0297 58.0094 9.73104C58.7317 8.57118 59.072 8.02945 59.3984 7.52245C59.579 7.2377 59.7318 6.98072 59.7318 6.95294C59.7318 6.92516 59.3498 6.90432 58.8845 6.90432H58.0302L57.7107 7.41133C57.5301 7.68219 57.1204 8.34199 56.787 8.86288C54.4117 12.655 54.2242 12.9467 54.1756 12.9467C54.127 12.9467 53.9394 12.655 51.5642 8.86288C51.2308 8.34199 50.821 7.68219 50.6405 7.41133L50.321 6.90432H49.4737C49.0014 6.90432 48.6194 6.92516 48.6194 6.95989Z" fill="white"/>
<path d="M63.135 14.683V22.4617H68.8926H74.6502L74.7197 22.2672C74.81 22.045 75.7059 19.3988 75.7059 19.3641C75.7059 19.3502 77.1713 19.3363 78.9702 19.3363H82.2344L82.3247 19.5586C82.3803 19.6836 82.6164 20.392 82.8664 21.1212L83.3109 22.4617H84.693C85.9779 22.4617 86.0682 22.4547 86.0196 22.3436C85.9918 22.2741 85.4917 20.8573 84.8945 19.1974C84.3041 17.5375 83.6651 15.7456 83.4776 15.2178C83.2901 14.6969 82.9845 13.8287 82.79 13.2939C82.6025 12.7592 82.29 11.891 82.1025 11.3632C81.9149 10.8423 81.4774 9.62686 81.144 8.67536L80.5259 6.93905L78.9979 6.91821L77.47 6.90432L76.7199 9.00179C76.0115 10.9812 74.803 14.3496 74.0321 16.5027C73.8446 17.0305 73.539 17.8917 73.3515 18.4126C73.1639 18.9404 72.782 19.9961 72.5111 20.7601C72.2402 21.5241 71.9833 22.1769 71.9485 22.2116C71.9138 22.2533 71.886 21.8435 71.886 21.156V20.0308L68.7815 20.0169L65.67 19.9961L65.6492 13.4467L65.6353 6.90432H64.3852H63.135V14.683ZM80.012 12.8772C80.6579 14.7455 81.3246 16.6624 81.3802 16.8152C81.4079 16.8846 80.9079 16.9055 79.0118 16.9055C77.6922 16.9055 76.6088 16.8777 76.6088 16.8499C76.6088 16.8152 76.7963 16.2596 77.0186 15.6137C77.2477 14.9678 77.72 13.6134 78.0673 12.5994C78.4145 11.5854 78.7688 10.5784 78.8452 10.3492L78.991 9.94634L79.1855 10.4881C79.2896 10.7937 79.6647 11.8632 80.012 12.8772Z" fill="white"/>
<path d="M86.8182 14.683V22.4617H90.3881C94.3052 22.4617 94.5691 22.4408 95.4095 22.0519C96.2707 21.6421 97.0903 20.8851 97.507 20.1003C97.9445 19.2807 98.1181 18.0375 97.9237 17.0999C97.7362 16.1762 97.0208 15.1205 96.2638 14.6413C96.0901 14.5371 95.9373 14.4399 95.9235 14.426C95.9026 14.4121 96.0693 14.2246 96.2915 14.0093C96.9444 13.3634 97.243 12.7453 97.375 11.7799C97.4653 11.1062 97.382 10.3005 97.1528 9.68937C96.7708 8.67536 95.8887 7.75164 94.8608 7.3002C94.0135 6.92516 93.7704 6.90432 90.1589 6.90432H86.8182V14.683ZM93.7496 9.51574C94.4302 9.85605 94.8747 10.5784 94.8747 11.3493C94.8747 12.1202 94.4302 12.8425 93.7496 13.1828L93.3884 13.3634H91.3535H89.3185V11.3493V9.33516H91.3535H93.3884L93.7496 9.51574ZM94.2913 15.9123C95.8748 16.7596 95.854 19.1071 94.2496 19.8503L93.8677 20.0308H91.5966H89.3185V17.8778V15.7178L91.666 15.7387C93.9232 15.7595 94.0205 15.7665 94.2913 15.9123Z" fill="white"/>
</g>
<defs>
<clipPath id="clip0_1812_1143">
<rect width="97.2334" height="27.781" fill="white" transform="translate(0.766602 0.79248)"/>
</clipPath>
</defs>
</svg>
