<svg width="98" height="25" viewBox="0 0 98 25" fill="none" xmlns="http://www.w3.org/2000/svg">
<g clip-path="url(#clip0_1812_1133)">
<path d="M7.16651 0.843901C4.55562 1.67669 2.70998 3.29724 1.5846 5.66056L0.864349 7.16857V12.683V18.1974L1.5846 19.7054C2.48491 21.6185 3.97042 23.1041 5.88357 24.0044L7.39159 24.7246H12.906H18.4204L19.9284 24.0044C21.8416 23.1041 23.3271 21.6185 24.2274 19.7054L24.9476 18.1974V12.683V7.16857L24.2274 5.66056C23.3271 3.7474 21.8416 2.26189 19.9284 1.36158L18.4204 0.641331L13.2436 0.596316C9.48481 0.5513 7.81924 0.618824 7.16651 0.843901ZM11.1504 7.86631L13.4237 10.2296L15.877 7.79879L18.3078 5.36796V12.863V20.3356H17.295H16.2821V15.2263V10.1171L14.8642 11.5126L13.4462 12.908L12.1182 11.5576L10.7678 10.1846L10.6552 13.2457L10.5427 16.3292L9.70989 17.0945C9.01215 17.7247 8.69704 17.8597 7.86425 17.8597C6.55881 17.8597 5.77104 17.4996 5.52345 16.7569C5.0958 15.5415 6.2437 14.2585 7.75172 14.2585H8.62952V9.8695C8.62952 7.46118 8.69704 5.48049 8.76456 5.48049C8.83209 5.48049 9.91246 6.56087 11.1504 7.86631Z" fill="white"/>
<path d="M72.5963 4.0626C71.3808 5.09796 72.0561 6.83105 73.6541 6.83105C74.6895 6.83105 75.3197 6.22335 75.3197 5.2105C75.3197 3.90505 73.6316 3.1848 72.5963 4.0626Z" fill="white"/>
<path d="M33.5005 8.94672C33.1403 9.10427 32.6227 9.4644 32.3751 9.757L31.9249 10.2522L31.8124 9.62195C31.6998 8.99173 31.6323 8.96923 30.4619 8.96923H29.224L29.1565 14.3036L29.1115 19.6604H30.4619H31.8124V16.5093C31.8124 13.0881 32.0375 12.1203 32.9603 11.4676C33.748 10.9274 34.8734 11.0174 35.5262 11.6702C36.0888 12.2103 36.0888 12.2779 36.0888 15.9466V19.6604H37.4168H38.7448L38.8348 16.0367L38.9023 12.4129L39.6451 11.7602C40.0952 11.355 40.6129 11.1075 41.018 11.1075C42.8187 11.1075 43.0662 11.7377 43.0662 16.1717V19.6604H44.4392H45.7897L45.7222 15.5415C45.6546 11.9402 45.6096 11.3325 45.182 10.5448C44.0791 8.40653 40.6804 8.00139 39.0599 9.84703L38.4522 10.5448L37.8219 9.82452C36.8541 8.72164 34.9184 8.3165 33.5005 8.94672Z" fill="white"/>
<path d="M81.622 8.94669C80.2266 9.39684 79.2137 10.0946 78.561 11.0849C76.9179 13.5608 77.3231 16.7119 79.5288 18.58C81.4645 20.2456 84.7056 20.3581 86.9339 18.8051C87.1814 18.625 87.0689 18.3774 86.3937 17.5671L85.5384 16.5543L84.8857 17.027C83.9403 17.7247 82.4998 17.6572 81.4645 16.8694C79.6188 15.4739 79.934 12.5254 82.0047 11.445C82.905 10.9724 83.7828 11.0174 84.6831 11.5801L85.4483 12.0302L86.3036 11.1975L87.1814 10.3422L86.6863 9.82449C86.1461 9.23929 84.323 8.63158 83.2651 8.65409C82.8825 8.65409 82.1397 8.78913 81.622 8.94669Z" fill="white"/>
<path d="M91.6153 8.87917C90.58 9.12676 89.6121 9.59942 89.207 10.0946C88.9594 10.3872 89.0044 10.5447 89.5446 11.1074L90.1523 11.7602L90.9851 11.31C92.6057 10.4322 94.4288 10.5673 95.1715 11.6251C95.8468 12.6155 95.6442 12.863 94.0011 12.9981C93.1459 13.0881 91.9304 13.2457 91.2777 13.3807C87.0688 14.236 87.1138 19.4803 91.3452 19.8404C93.0558 19.9755 94.0237 19.7504 94.8114 19.0077L95.5092 18.3549V19.0077C95.5092 19.6379 95.5317 19.6604 96.7471 19.6604H97.985V15.9916C97.985 13.9884 97.8725 11.9627 97.7599 11.5126C97.1297 9.2618 94.6089 8.18143 91.6153 8.87917ZM95.2841 15.8116C95.2841 16.5318 95.149 16.8019 94.5863 17.2746C93.2809 18.3774 90.7825 17.8823 90.7825 16.5543C90.7825 15.6315 92.1105 14.9788 94.1137 14.9563L95.2841 14.9338V15.8116Z" fill="white"/>
<path d="M48.7383 13.2232C48.8059 17.2521 48.8509 17.6572 49.2785 18.2424C50.1563 19.4353 51.1017 19.8855 52.6547 19.8855C53.9826 19.8855 54.1627 19.818 54.9955 19.0752L55.8958 18.2649V18.9627V19.6604H57.2463H58.5967L58.5517 14.3036L58.4842 8.96925L57.2013 8.90172L55.8958 8.8342V11.9853C55.8958 15.7666 55.6257 16.7119 54.3878 17.2971C53.2624 17.8373 52.3171 17.5447 51.7994 16.5093C51.4618 15.8566 51.3943 15.1139 51.3943 12.2779V8.85671H50.0213H48.6483L48.7383 13.2232Z" fill="white"/>
<path d="M61.0726 9.98208V11.1075H63.796H66.5194L63.6834 14.1235L60.8475 17.117V18.4V19.6604H65.4616H70.0756V18.6476V17.6572L67.0146 17.5897L63.976 17.5222L66.3169 15.0463C69.9406 11.22 69.8956 11.2875 69.8056 10.0496L69.738 8.96923L65.4165 8.9017L61.0726 8.85669V9.98208Z" fill="white"/>
<path d="M72.3262 14.2585V19.6604H73.6766H75.0271V14.2585V8.85669H73.6766H72.3262V14.2585Z" fill="white"/>
</g>
<defs>
<clipPath id="clip0_1812_1133">
<rect width="97.2334" height="24.3084" fill="white" transform="translate(0.751617 0.528809)"/>
</clipPath>
</defs>
</svg>
