<svg width="94" height="94" viewBox="0 0 94 94" fill="none" xmlns="http://www.w3.org/2000/svg">
<circle cx="46.9417" cy="46.6519" r="46.6518" fill="url(#paint0_linear_1812_1203)"/>
<path d="M32.1418 28.5999C31.708 28.1809 31.127 27.9491 30.5239 27.9543C29.9209 27.9596 29.344 28.2014 28.9176 28.6279C28.4911 29.0543 28.2492 29.6312 28.244 30.2342C28.2388 30.8373 28.4706 31.4183 28.8896 31.8521L44.8079 47.7727C44.9229 47.9153 45.0494 48.0441 45.1943 48.1568L61.0873 64.0521C61.3008 64.2658 61.5543 64.4353 61.8334 64.551C62.1125 64.6667 62.4116 64.7263 62.7137 64.7264C63.0158 64.7265 63.315 64.6671 63.5941 64.5516C63.8733 64.4361 64.1269 64.2668 64.3406 64.0532C64.5543 63.8397 64.7238 63.5861 64.8395 63.3071C64.9553 63.028 65.0149 62.7289 65.015 62.4268C65.0151 62.1247 64.9557 61.8255 64.8402 61.5464C64.7247 61.2672 64.5553 61.0136 64.3418 60.7999L62.7893 59.2474C65.9671 55.2688 67.5673 50.2587 67.2838 45.1747C67.0004 40.0906 64.8533 35.2894 61.2529 31.6888C61.0407 31.4691 60.7869 31.2939 60.5063 31.1733C60.2257 31.0528 59.9239 30.9893 59.6185 30.9867C59.3131 30.984 59.0102 31.0422 58.7276 31.1579C58.4449 31.2735 58.1881 31.4443 57.9721 31.6603C57.7562 31.8762 57.5854 32.133 57.4698 32.4157C57.3541 32.6983 57.2959 33.0012 57.2986 33.3066C57.3012 33.612 57.3647 33.9138 57.4852 34.1944C57.6058 34.475 57.781 34.7288 58.0007 34.941C60.7384 37.679 62.3981 41.3118 62.6756 45.1738C62.9531 49.0358 61.8299 52.8685 59.5118 55.9699L56.2113 52.6694C57.6728 50.4574 58.3255 47.8084 58.0589 45.1706C57.7924 42.5328 56.623 40.0681 54.7485 38.1932C54.3166 37.7613 53.7308 37.5187 53.1201 37.5187C52.5093 37.5187 51.9235 37.7613 51.4917 38.1932C51.0598 38.625 50.8171 39.2108 50.8171 39.8216C50.8171 40.4323 51.0598 41.0181 51.4917 41.45C52.5015 42.4587 53.1736 43.7559 53.4154 45.1626C53.6572 46.5693 53.4568 48.0164 52.8418 49.3045L48.2602 44.7229C48.2465 44.7089 48.2327 44.6951 48.2188 44.6815L32.1418 28.5999ZM31.0631 42.1561C31.2204 41.5665 31.1372 40.9386 30.8316 40.4104C30.526 39.8822 30.0231 39.4971 29.4335 39.3397C28.8439 39.1823 28.216 39.2656 27.6878 39.5712C27.1597 39.8768 26.7745 40.3797 26.6172 40.9693C25.6773 44.4793 25.678 48.1748 26.6191 51.6845C27.5602 55.1942 29.4086 58.3943 31.9785 60.9632C32.1921 61.1767 32.4458 61.3461 32.725 61.4616C33.0041 61.5771 33.3033 61.6365 33.6054 61.6364C33.9075 61.6363 34.2066 61.5767 34.4857 61.461C34.7647 61.3452 35.0183 61.1757 35.2318 60.962C35.4453 60.7483 35.6147 60.4947 35.7302 60.2155C35.8457 59.9364 35.9051 59.6372 35.905 59.3351C35.9049 59.033 35.8453 58.7339 35.7296 58.4548C35.6139 58.1757 35.4443 57.9222 35.2307 57.7087C33.2314 55.7106 31.7936 53.2213 31.062 50.491C30.3304 47.7608 30.3307 44.8861 31.0631 42.1561ZM40.6357 49.776C40.4919 49.5011 40.294 49.2582 40.0539 49.0618C39.8138 48.8654 39.5364 48.7196 39.2385 48.6331C38.9406 48.5467 38.6283 48.5214 38.3203 48.5588C38.0124 48.5963 37.7152 48.6956 37.4466 48.8508C37.1781 49.006 36.9437 49.214 36.7576 49.4622C36.5715 49.7103 36.4375 49.9936 36.3637 50.2949C36.2899 50.5962 36.2778 50.9093 36.3282 51.2154C36.3785 51.5214 36.4902 51.8142 36.6567 52.076C37.1489 52.9293 37.7607 53.732 38.4852 54.4565C38.9189 54.8754 39.4999 55.1073 40.103 55.102C40.706 55.0968 41.2829 54.8549 41.7093 54.4284C42.1358 54.002 42.3777 53.4251 42.3829 52.8221C42.3881 52.219 42.1563 51.638 41.7374 51.2043C41.2981 50.765 40.9324 50.2843 40.638 49.7737" fill="white"/>
<defs>
<linearGradient id="paint0_linear_1812_1203" x1="0.289902" y1="46.6519" x2="46.9417" y2="46.6519" gradientUnits="userSpaceOnUse">
<stop stop-color="#FCA300"/>
<stop offset="1" stop-color="#AB6E00"/>
</linearGradient>
</defs>
</svg>
