<svg width="94" height="94" viewBox="0 0 94 94" fill="none" xmlns="http://www.w3.org/2000/svg">
<circle cx="46.7366" cy="46.6519" r="46.6518" fill="url(#paint0_linear_1812_1196)"/>
<path d="M54.0773 40.576V36.7426H46.4106V47.2843C45.6056 46.6901 44.6281 46.326 43.5356 46.326C42.2648 46.326 41.046 46.8308 40.1474 47.7294C39.2488 48.628 38.7439 49.8468 38.7439 51.1176C38.7439 52.3885 39.2488 53.6072 40.1474 54.5059C41.046 55.4045 42.2648 55.9093 43.5356 55.9093C44.8064 55.9093 46.0252 55.4045 46.9238 54.5059C47.8224 53.6072 48.3273 52.3885 48.3273 51.1176V40.576H54.0773ZM46.4106 27.1593C48.9276 27.1593 51.42 27.6551 53.7454 28.6183C56.0708 29.5815 58.1837 30.9933 59.9635 32.7731C61.7433 34.5529 63.1551 36.6658 64.1183 38.9912C65.0815 41.3166 65.5773 43.809 65.5773 46.326C65.5773 51.4093 63.5579 56.2844 59.9635 59.8788C56.369 63.4733 51.4939 65.4926 46.4106 65.4926C43.8936 65.4926 41.4012 64.9969 39.0758 64.0337C36.7504 63.0704 34.6375 61.6586 32.8577 59.8788C29.2633 56.2844 27.2439 51.4093 27.2439 46.326C27.2439 41.2427 29.2633 36.3675 32.8577 32.7731C36.4522 29.1786 41.3273 27.1593 46.4106 27.1593Z" fill="white"/>
<defs>
<linearGradient id="paint0_linear_1812_1196" x1="0.0848389" y1="46.6519" x2="46.7366" y2="46.6519" gradientUnits="userSpaceOnUse">
<stop stop-color="#FCA300"/>
<stop offset="1" stop-color="#AB6E00"/>
</linearGradient>
</defs>
</svg>
